<mxfile host="app.diagrams.net" agent="Mozilla/5.0 (Windows NT 10.0; Win64; x64; rv:141.0) Gecko/20100101 Firefox/141.0" version="28.0.7">
  <diagram name="Page-1" id="2TZM8EzrIC8mnDVudi0b">
    <mxGraphModel dx="1554" dy="823" grid="1" gridSize="10" guides="1" tooltips="1" connect="1" arrows="1" fold="1" page="1" pageScale="1" pageWidth="850" pageHeight="1100" math="0" shadow="0">
      <root>
        <mxCell id="0" />
        <mxCell id="1" parent="0" />
        <mxCell id="D3MBCHg8s_-wA-M3d_MM-1" value="" style="rounded=0;whiteSpace=wrap;html=1;" vertex="1" parent="1">
          <mxGeometry width="850" height="90" as="geometry" />
        </mxCell>
        <mxCell id="D3MBCHg8s_-wA-M3d_MM-2" value="" style="ellipse;whiteSpace=wrap;html=1;aspect=fixed;" vertex="1" parent="1">
          <mxGeometry y="5" width="80" height="80" as="geometry" />
        </mxCell>
        <mxCell id="D3MBCHg8s_-wA-M3d_MM-4" value="Logo" style="text;html=1;align=center;verticalAlign=middle;whiteSpace=wrap;rounded=0;" vertex="1" parent="1">
          <mxGeometry x="10" y="30" width="60" height="30" as="geometry" />
        </mxCell>
        <mxCell id="D3MBCHg8s_-wA-M3d_MM-6" value="Home" style="text;html=1;align=center;verticalAlign=middle;whiteSpace=wrap;rounded=0;" vertex="1" parent="1">
          <mxGeometry x="110" y="30" width="60" height="30" as="geometry" />
        </mxCell>
        <mxCell id="D3MBCHg8s_-wA-M3d_MM-8" value="Pilots" style="text;html=1;align=center;verticalAlign=middle;whiteSpace=wrap;rounded=0;" vertex="1" parent="1">
          <mxGeometry x="180" y="30" width="60" height="30" as="geometry" />
        </mxCell>
        <mxCell id="D3MBCHg8s_-wA-M3d_MM-9" value="&lt;div&gt;Ships&lt;/div&gt;" style="text;html=1;align=center;verticalAlign=middle;whiteSpace=wrap;rounded=0;" vertex="1" parent="1">
          <mxGeometry x="240" y="30" width="60" height="30" as="geometry" />
        </mxCell>
        <mxCell id="D3MBCHg8s_-wA-M3d_MM-10" value="Join" style="text;html=1;align=center;verticalAlign=middle;whiteSpace=wrap;rounded=0;" vertex="1" parent="1">
          <mxGeometry x="290" y="30" width="60" height="30" as="geometry" />
        </mxCell>
        <mxCell id="D3MBCHg8s_-wA-M3d_MM-11" value="&lt;div&gt;Contact&lt;/div&gt;" style="text;html=1;align=center;verticalAlign=middle;whiteSpace=wrap;rounded=0;" vertex="1" parent="1">
          <mxGeometry x="340" y="30" width="60" height="30" as="geometry" />
        </mxCell>
        <mxCell id="D3MBCHg8s_-wA-M3d_MM-12" value="" style="rounded=0;whiteSpace=wrap;html=1;" vertex="1" parent="1">
          <mxGeometry y="1040" width="850" height="60" as="geometry" />
        </mxCell>
        <mxCell id="D3MBCHg8s_-wA-M3d_MM-13" value="Have Questions? Contact us" style="text;html=1;align=center;verticalAlign=middle;whiteSpace=wrap;rounded=0;" vertex="1" parent="1">
          <mxGeometry x="340" y="1055" width="170" height="30" as="geometry" />
        </mxCell>
      </root>
    </mxGraphModel>
  </diagram>
</mxfile>
